<?xml version="1.0" encoding="UTF-8"?>
<svg id="objects" xmlns="http://www.w3.org/2000/svg" viewBox="0 0 137.65 137.65">
  <defs>
    <style>
      .cls-1 {
        fill: #fff;
        fill-rule: evenodd;
      }
    </style>
  </defs>
  <path class="cls-1" d="M121.83,70.39c-18.71-6.03-27.6-19.66-52.02-37.74C45.39,14.56,12.72,15.52,8.6,42.79c-3.32,21.95,15.44,29.1,22.89,31.06,1.82.48,3.71.28,5.45-.43,20.42-8.22,45.46-5.5,61.24,8.52,0,0-26.11-16.56-60.65-3.04-1.94.76-3.22,2.69-3.18,4.78.04,1.9.13,3.82.3,5.75.77,8.82,2.35,15.21,3.48,18.88.53,1.74,2.59,2.35,4.05,1.27,13.42-9.91,42.48-13.64,50.75-10.32-4.91,4.97-31.23,12.94-40.26,12.77,11.68,2.5,34-3.25,45.02-11.66,1.24.32,2.38.63,3.41.93-17.06,15.78-43.1,15.61-54.95,13.91,14.79,5.1,46.89-.17,59-10.52,1.29-1.1,1.88-2.77,1.59-4.44-.58-3.29-1.54-9.22-1.61-13.37,15.67,12.19,35.43-10.47,16.71-16.5Z"/>
</svg>