<?xml version="1.0" encoding="UTF-8"?>
<svg id="objects" xmlns="http://www.w3.org/2000/svg" viewBox="0 0 128 128">
  <defs>
    <style>
      .cls-1 {
        fill: #fff;
        fill-rule: evenodd;
      }
    </style>
  </defs>
  <path class="cls-1" d="M93.26,36.59c-2.82-22.37-32.68-32.67-49.95-10.02,0,0,1.58-7.03,8.3-11.57-5.19-2.27-16.93-6.14-25.12.96-10.78,9.36-4.6,21.57-4.6,21.57,0,0-19.51,7.61-13.48,25.06.97,2.8,2.82,5.25,4.8,7.21,2.13,2.1,5.47,2.01,7.67-.02,14.05-12.97,49.07-22.85,70.55.08-15.53-11.22-49.54-11.05-65.51,2.27-2.15,1.8-3.21,4.59-2.98,7.39.24,3,.54,6.86.7,8.77.63,7.24,1.81,12.84,2.83,16.64.71,2.65,3.8,3.67,6.04,2.08,11.86-8.39,38.16-13.24,49.41-8.89-12.93,10.96-31.23,12.94-40.26,12.76,11.68,2.5,34-3.25,45.02-11.66,1.23.32,2.38.63,3.41.92-17.06,15.78-43.1,15.61-54.95,13.91,15.24,5.26,48.38-.13,59.53-11.1.63-.62.86-1.52.69-2.39-.56-2.85-1.7-9.68-1.2-15.54.15-1.71,1.84-2.92,3.5-2.47,30.76,8.2,32.23-38.26-4.4-45.97Z"/>
</svg>