<?xml version="1.0" encoding="UTF-8"?>
<svg id="objects" xmlns="http://www.w3.org/2000/svg" viewBox="0 0 137.65 137.65">
  <defs>
    <style>
      .cls-1 {
        fill: #fff;
        fill-rule: evenodd;
      }
    </style>
  </defs>
  <path class="cls-1" d="M119.17,63.23c-1.4.13-2.65.07-3.75-.15h0c1.1,2.51,7.54,4.23,7.54,4.23,0,0-4.68.71-9.2-2.22-4.52-2.93-5-9.07-5-9.07h0c-.79-3.4-.59-7.74.26-12.46,2.06-11.42-16.34-11.1-26.64-5.87-1.78.9-3.35,1.39-4.78,1.52h0c2.85,3.22,9.84,2.17,9.84,2.17,0,0-4.84,1.82-8.96.55-4.12-1.27-7.16-4.77-7.16-4.77h0c-3.58-2.82-6.81-8.21-11.62-14.39-8.88-11.42-21.73.32-25.37,9.36-.75,1.86-1.72,3.32-2.82,4.45h0s0,0,0,0c-.09.11-3.09,3.75-7.66,5.7-4.64,1.98-9.28.28-9.28.28,0,0,7.63.73,10.36-2.93-2.86.22-5.74-.66-7.88-2.11-4.92-3.33-18.87.16-12.53,21.09,2.68,8.84,9.42,13.3,15.7,15.42,2.39.81,5.05.02,6.75-1.84,16.78-18.34,53.62-14.82,64.4,1.17-24.92-13.36-52.68-7.92-62.56,6.85-1.15,1.72-1.69,3.79-1.57,5.86.11,1.97.28,4.14.42,5.68.74,8.47,2.22,14.69,3.34,18.43.6,1.99,3.03,2.9,4.67,1.62,7.76-6.06,32.54-14.53,50.27-10.21-12.93,10.96-31.23,12.94-40.26,12.76,11.68,2.5,34-3.25,45.02-11.66,1.24.32,2.38.63,3.41.92-17.06,15.78-43.1,15.61-54.95,13.91,14.71,5.08,46.08.24,58.28-9.97,1.4-1.17,2.03-2.99,1.71-4.79-.53-2.96-1.24-7.99-1.06-12.69.06-1.67,2.23-2.33,3.23-.99,8.32,11.08,15.46,5.03,12.15-1.29-3.65-6.98,10.78-6.5,18.55-10.63,7.77-4.12-2.38-14.91-12.85-13.96Z"/>
</svg>