<?xml version="1.0" encoding="UTF-8"?>
<svg id="objects" xmlns="http://www.w3.org/2000/svg" viewBox="0 0 137.65 137.65">
  <defs>
    <style>
      .cls-1 {
        fill: #fff;
        fill-rule: evenodd;
      }
    </style>
  </defs>
  <path class="cls-1" d="M124.73,45.4s1.43-8.72-4.6-13.8c-6.03-5.08-12.05-4.6-12.05-4.6,0,0-.5-8.93-10.02-13.21-9.51-4.28-15.99-.75-15.99-.75,0,0-3.08-9.29-13.72-10.31-20.79-1.99-16.67,17.43-16.67,17.43,0,0-4.73-4.9-2.79-12.13-3.49-5.44-22.59-2.31-21.69,9.45,0,0-12.37,2-8.59,15.17,3.17,11.04,15.23,7.97,15.23,7.97-2.66,24.99-2.77,48.77,1.05,70.22.25,1.41,1.9,2.1,3.07,1.28,9.74-6.81,35.71-14.66,55.76-3.97,0,0-30.98-7.46-55,10.76-1.2.91-1.75,2.51-1.43,3.98.23,1.05.44,1.98.68,3.01.38,1.62,2.27,2.31,3.64,1.35,9.19-6.43,29.99-14.96,50.73-10.49-12.93,10.96-31.23,12.94-40.26,12.76,11.68,2.5,34-3.25,45.02-11.65,1.24.31,2.38.63,3.41.92-17.06,15.78-43.1,15.61-54.95,13.91,14.79,5.11,50.84,1.83,59.26-9.84.89-1.23,1.06-2.82.69-4.29-3.03-12.15-3.59-36.19-1.35-49.23.29-1.71.07-3.46-.7-5.01-2.1-4.24-5.5-8.24-9.64-11.85-4.69,21.85-4.03,43.8-4.03,43.8-2.4-13.23-1.24-39.81-.83-47.6-3.51-2.48-7.36-4.64-11.32-6.5-6.53,27.49-5.67,49.32-5.67,49.32-3.05-16.8-1.41-45.38-.97-52.09-6.63-2.39-13.25-3.73-18.89-3.63,29.47-3.91,48.44,12,55.85,24.78,3.74,10.63,14.53,6.96,18.78,1.56,6.43-8.17-2.02-16.73-2.02-16.73Z"/>
</svg>